<svg width="91" height="91" xmlns="http://www.w3.org/2000/svg">

 <g>
  <title>background</title>
  <rect fill="none" id="canvas_background" height="402" width="582" y="-1" x="-1"/>
 </g>
 <g>
  <title>Layer 1</title>
  <polygon id="svg_5" points="88.157,30.646 45.422,50.945 2.694,30.646 45.422,10.341     " fill="#ffffff"/>
  <path id="svg_6" fill="#ffffff" d="m45.422,53.458c-0.369,0 -0.736,-0.081 -1.078,-0.243l-42.728,-20.3c-0.876,-0.416 -1.434,-1.3 -1.435,-2.27c0,-0.97 0.558,-1.854 1.434,-2.27l42.729,-20.304c0.682,-0.324 1.475,-0.324 2.156,0l42.735,20.305c0.876,0.416 1.435,1.3 1.435,2.27s-0.559,1.854 -1.435,2.27l-42.735,20.299c-0.342,0.162 -0.709,0.243 -1.078,0.243zm-36.874,-22.812l36.874,17.519l36.881,-17.519l-36.881,-17.524l-36.874,17.524z"/>
  <path id="svg_7" fill="#ffffff" d="m45.422,70.574c-0.369,0 -0.736,-0.081 -1.078,-0.243l-42.728,-20.3c-1.253,-0.596 -1.787,-2.095 -1.191,-3.348s2.094,-1.786 3.348,-1.191l41.65,19.788l41.657,-19.788c1.256,-0.595 2.753,-0.062 3.348,1.191c0.595,1.254 0.062,2.752 -1.191,3.348l-42.737,20.3c-0.342,0.162 -0.709,0.243 -1.078,0.243z"/>
  <path id="svg_8" fill="#ffffff" d="m45.422,87.694c-0.369,0 -0.737,-0.081 -1.078,-0.243l-42.728,-20.302c-1.253,-0.596 -1.787,-2.095 -1.191,-3.348s2.094,-1.786 3.348,-1.191l41.65,19.79l41.657,-19.79c1.256,-0.595 2.753,-0.061 3.348,1.191c0.595,1.253 0.062,2.752 -1.191,3.348l-42.737,20.302c-0.342,0.162 -0.709,0.243 -1.078,0.243z"/>
 </g>
</svg>